<?xml version="1.0" encoding="utf-8"?>
<svg xmlns="http://www.w3.org/2000/svg" xmlns:xlink="http://www.w3.org/1999/xlink" width="600" height="400" viewBox="0 0 2400 1600">
<defs>
  <clipPath id="clip540">
    <rect x="0" y="0" width="2400" height="1600"/>
  </clipPath>
</defs>
<path clip-path="url(#clip540)" d="M0 1600 L2400 1600 L2400 0 L0 0  Z" fill="#ffffff" fill-rule="evenodd" fill-opacity="1"/>
<defs>
  <clipPath id="clip541">
    <rect x="480" y="0" width="1681" height="1600"/>
  </clipPath>
</defs>
<path clip-path="url(#clip540)" d="M86.9921 1505.26 L2352.76 1505.26 L2352.76 47.2441 L86.9921 47.2441  Z" fill="#ffffff" fill-rule="evenodd" fill-opacity="1"/>
<defs>
  <clipPath id="clip542">
    <rect x="86" y="47" width="2267" height="1459"/>
  </clipPath>
</defs>
<polyline clip-path="url(#clip542)" style="stroke:#000000; stroke-linecap:round; stroke-linejoin:round; stroke-width:2; stroke-opacity:0.1; fill:none" points="151.118,1505.26 151.118,47.2441 "/>
<polyline clip-path="url(#clip542)" style="stroke:#000000; stroke-linecap:round; stroke-linejoin:round; stroke-width:2; stroke-opacity:0.1; fill:none" points="507.37,1505.26 507.37,47.2441 "/>
<polyline clip-path="url(#clip542)" style="stroke:#000000; stroke-linecap:round; stroke-linejoin:round; stroke-width:2; stroke-opacity:0.1; fill:none" points="863.622,1505.26 863.622,47.2441 "/>
<polyline clip-path="url(#clip542)" style="stroke:#000000; stroke-linecap:round; stroke-linejoin:round; stroke-width:2; stroke-opacity:0.1; fill:none" points="1219.87,1505.26 1219.87,47.2441 "/>
<polyline clip-path="url(#clip542)" style="stroke:#000000; stroke-linecap:round; stroke-linejoin:round; stroke-width:2; stroke-opacity:0.1; fill:none" points="1576.13,1505.26 1576.13,47.2441 "/>
<polyline clip-path="url(#clip542)" style="stroke:#000000; stroke-linecap:round; stroke-linejoin:round; stroke-width:2; stroke-opacity:0.1; fill:none" points="1932.38,1505.26 1932.38,47.2441 "/>
<polyline clip-path="url(#clip542)" style="stroke:#000000; stroke-linecap:round; stroke-linejoin:round; stroke-width:2; stroke-opacity:0.1; fill:none" points="2288.63,1505.26 2288.63,47.2441 "/>
<polyline clip-path="url(#clip540)" style="stroke:#000000; stroke-linecap:round; stroke-linejoin:round; stroke-width:4; stroke-opacity:1; fill:none" points="86.9921,1505.26 2352.76,1505.26 "/>
<polyline clip-path="url(#clip540)" style="stroke:#000000; stroke-linecap:round; stroke-linejoin:round; stroke-width:4; stroke-opacity:1; fill:none" points="151.118,1505.26 151.118,1486.36 "/>
<polyline clip-path="url(#clip540)" style="stroke:#000000; stroke-linecap:round; stroke-linejoin:round; stroke-width:4; stroke-opacity:1; fill:none" points="507.37,1505.26 507.37,1486.36 "/>
<polyline clip-path="url(#clip540)" style="stroke:#000000; stroke-linecap:round; stroke-linejoin:round; stroke-width:4; stroke-opacity:1; fill:none" points="863.622,1505.26 863.622,1486.36 "/>
<polyline clip-path="url(#clip540)" style="stroke:#000000; stroke-linecap:round; stroke-linejoin:round; stroke-width:4; stroke-opacity:1; fill:none" points="1219.87,1505.26 1219.87,1486.36 "/>
<polyline clip-path="url(#clip540)" style="stroke:#000000; stroke-linecap:round; stroke-linejoin:round; stroke-width:4; stroke-opacity:1; fill:none" points="1576.13,1505.26 1576.13,1486.36 "/>
<polyline clip-path="url(#clip540)" style="stroke:#000000; stroke-linecap:round; stroke-linejoin:round; stroke-width:4; stroke-opacity:1; fill:none" points="1932.38,1505.26 1932.38,1486.36 "/>
<polyline clip-path="url(#clip540)" style="stroke:#000000; stroke-linecap:round; stroke-linejoin:round; stroke-width:4; stroke-opacity:1; fill:none" points="2288.63,1505.26 2288.63,1486.36 "/>
<path clip-path="url(#clip540)" d="M98.1433 1550.83 L127.819 1550.83 L127.819 1554.77 L98.1433 1554.77 L98.1433 1550.83 Z" fill="#000000" fill-rule="nonzero" fill-opacity="1" /><path clip-path="url(#clip540)" d="M138.722 1563.72 L146.361 1563.72 L146.361 1537.36 L138.05 1539.03 L138.05 1534.77 L146.314 1533.1 L150.99 1533.1 L150.99 1563.72 L158.629 1563.72 L158.629 1567.66 L138.722 1567.66 L138.722 1563.72 Z" fill="#000000" fill-rule="nonzero" fill-opacity="1" /><path clip-path="url(#clip540)" d="M168.073 1561.78 L172.958 1561.78 L172.958 1567.66 L168.073 1567.66 L168.073 1561.78 Z" fill="#000000" fill-rule="nonzero" fill-opacity="1" /><path clip-path="url(#clip540)" d="M183.189 1533.1 L201.545 1533.1 L201.545 1537.04 L187.471 1537.04 L187.471 1545.51 Q188.49 1545.16 189.509 1545 Q190.527 1544.81 191.546 1544.81 Q197.333 1544.81 200.712 1547.98 Q204.092 1551.16 204.092 1556.57 Q204.092 1562.15 200.62 1565.25 Q197.147 1568.33 190.828 1568.33 Q188.652 1568.33 186.384 1567.96 Q184.138 1567.59 181.731 1566.85 L181.731 1562.15 Q183.814 1563.28 186.036 1563.84 Q188.259 1564.4 190.735 1564.4 Q194.74 1564.4 197.078 1562.29 Q199.416 1560.18 199.416 1556.57 Q199.416 1552.96 197.078 1550.85 Q194.74 1548.75 190.735 1548.75 Q188.86 1548.75 186.985 1549.16 Q185.134 1549.58 183.189 1550.46 L183.189 1533.1 Z" fill="#000000" fill-rule="nonzero" fill-opacity="1" /><path clip-path="url(#clip540)" d="M453.898 1550.83 L483.574 1550.83 L483.574 1554.77 L453.898 1554.77 L453.898 1550.83 Z" fill="#000000" fill-rule="nonzero" fill-opacity="1" /><path clip-path="url(#clip540)" d="M494.476 1563.72 L502.115 1563.72 L502.115 1537.36 L493.805 1539.03 L493.805 1534.77 L502.069 1533.1 L506.745 1533.1 L506.745 1563.72 L514.384 1563.72 L514.384 1567.66 L494.476 1567.66 L494.476 1563.72 Z" fill="#000000" fill-rule="nonzero" fill-opacity="1" /><path clip-path="url(#clip540)" d="M523.828 1561.78 L528.712 1561.78 L528.712 1567.66 L523.828 1567.66 L523.828 1561.78 Z" fill="#000000" fill-rule="nonzero" fill-opacity="1" /><path clip-path="url(#clip540)" d="M548.897 1536.18 Q545.286 1536.18 543.457 1539.74 Q541.652 1543.28 541.652 1550.41 Q541.652 1557.52 543.457 1561.09 Q545.286 1564.63 548.897 1564.63 Q552.531 1564.63 554.337 1561.09 Q556.166 1557.52 556.166 1550.41 Q556.166 1543.28 554.337 1539.74 Q552.531 1536.18 548.897 1536.18 M548.897 1532.47 Q554.707 1532.47 557.763 1537.08 Q560.842 1541.66 560.842 1550.41 Q560.842 1559.14 557.763 1563.75 Q554.707 1568.33 548.897 1568.33 Q543.087 1568.33 540.008 1563.75 Q536.953 1559.14 536.953 1550.41 Q536.953 1541.66 540.008 1537.08 Q543.087 1532.47 548.897 1532.47 Z" fill="#000000" fill-rule="nonzero" fill-opacity="1" /><path clip-path="url(#clip540)" d="M810.648 1550.83 L840.323 1550.83 L840.323 1554.77 L810.648 1554.77 L810.648 1550.83 Z" fill="#000000" fill-rule="nonzero" fill-opacity="1" /><path clip-path="url(#clip540)" d="M860.416 1536.18 Q856.805 1536.18 854.976 1539.74 Q853.171 1543.28 853.171 1550.41 Q853.171 1557.52 854.976 1561.09 Q856.805 1564.63 860.416 1564.63 Q864.05 1564.63 865.856 1561.09 Q867.684 1557.52 867.684 1550.41 Q867.684 1543.28 865.856 1539.74 Q864.05 1536.18 860.416 1536.18 M860.416 1532.47 Q866.226 1532.47 869.282 1537.08 Q872.36 1541.66 872.36 1550.41 Q872.36 1559.14 869.282 1563.75 Q866.226 1568.33 860.416 1568.33 Q854.606 1568.33 851.527 1563.75 Q848.471 1559.14 848.471 1550.41 Q848.471 1541.66 851.527 1537.08 Q854.606 1532.47 860.416 1532.47 Z" fill="#000000" fill-rule="nonzero" fill-opacity="1" /><path clip-path="url(#clip540)" d="M880.578 1561.78 L885.462 1561.78 L885.462 1567.66 L880.578 1567.66 L880.578 1561.78 Z" fill="#000000" fill-rule="nonzero" fill-opacity="1" /><path clip-path="url(#clip540)" d="M895.693 1533.1 L914.05 1533.1 L914.05 1537.04 L899.976 1537.04 L899.976 1545.51 Q900.994 1545.16 902.013 1545 Q903.031 1544.81 904.05 1544.81 Q909.837 1544.81 913.216 1547.98 Q916.596 1551.16 916.596 1556.57 Q916.596 1562.15 913.124 1565.25 Q909.652 1568.33 903.332 1568.33 Q901.156 1568.33 898.888 1567.96 Q896.643 1567.59 894.235 1566.85 L894.235 1562.15 Q896.318 1563.28 898.541 1563.84 Q900.763 1564.4 903.24 1564.4 Q907.244 1564.4 909.582 1562.29 Q911.92 1560.18 911.92 1556.57 Q911.92 1552.96 909.582 1550.85 Q907.244 1548.75 903.24 1548.75 Q901.365 1548.75 899.49 1549.16 Q897.638 1549.58 895.693 1550.46 L895.693 1533.1 Z" fill="#000000" fill-rule="nonzero" fill-opacity="1" /><path clip-path="url(#clip540)" d="M1197.26 1536.18 Q1193.65 1536.18 1191.82 1539.74 Q1190.01 1543.28 1190.01 1550.41 Q1190.01 1557.52 1191.82 1561.09 Q1193.65 1564.63 1197.26 1564.63 Q1200.89 1564.63 1202.7 1561.09 Q1204.53 1557.52 1204.53 1550.41 Q1204.53 1543.28 1202.7 1539.74 Q1200.89 1536.18 1197.26 1536.18 M1197.26 1532.47 Q1203.07 1532.47 1206.12 1537.08 Q1209.2 1541.66 1209.2 1550.41 Q1209.2 1559.14 1206.12 1563.75 Q1203.07 1568.33 1197.26 1568.33 Q1191.45 1568.33 1188.37 1563.75 Q1185.31 1559.14 1185.31 1550.41 Q1185.31 1541.66 1188.37 1537.08 Q1191.45 1532.47 1197.26 1532.47 Z" fill="#000000" fill-rule="nonzero" fill-opacity="1" /><path clip-path="url(#clip540)" d="M1217.42 1561.78 L1222.3 1561.78 L1222.3 1567.66 L1217.42 1567.66 L1217.42 1561.78 Z" fill="#000000" fill-rule="nonzero" fill-opacity="1" /><path clip-path="url(#clip540)" d="M1242.49 1536.18 Q1238.88 1536.18 1237.05 1539.74 Q1235.24 1543.28 1235.24 1550.41 Q1235.24 1557.52 1237.05 1561.09 Q1238.88 1564.63 1242.49 1564.63 Q1246.12 1564.63 1247.93 1561.09 Q1249.76 1557.52 1249.76 1550.41 Q1249.76 1543.28 1247.93 1539.74 Q1246.12 1536.18 1242.49 1536.18 M1242.49 1532.47 Q1248.3 1532.47 1251.36 1537.08 Q1254.43 1541.66 1254.43 1550.41 Q1254.43 1559.14 1251.36 1563.75 Q1248.3 1568.33 1242.49 1568.33 Q1236.68 1568.33 1233.6 1563.75 Q1230.55 1559.14 1230.55 1550.41 Q1230.55 1541.66 1233.6 1537.08 Q1236.68 1532.47 1242.49 1532.47 Z" fill="#000000" fill-rule="nonzero" fill-opacity="1" /><path clip-path="url(#clip540)" d="M1554.01 1536.18 Q1550.4 1536.18 1548.57 1539.74 Q1546.76 1543.28 1546.76 1550.41 Q1546.76 1557.52 1548.57 1561.09 Q1550.4 1564.63 1554.01 1564.63 Q1557.64 1564.63 1559.45 1561.09 Q1561.28 1557.52 1561.28 1550.41 Q1561.28 1543.28 1559.45 1539.74 Q1557.64 1536.18 1554.01 1536.18 M1554.01 1532.47 Q1559.82 1532.47 1562.87 1537.08 Q1565.95 1541.66 1565.95 1550.41 Q1565.95 1559.14 1562.87 1563.75 Q1559.82 1568.33 1554.01 1568.33 Q1548.2 1568.33 1545.12 1563.75 Q1542.06 1559.14 1542.06 1550.41 Q1542.06 1541.66 1545.12 1537.08 Q1548.2 1532.47 1554.01 1532.47 Z" fill="#000000" fill-rule="nonzero" fill-opacity="1" /><path clip-path="url(#clip540)" d="M1574.17 1561.78 L1579.05 1561.78 L1579.05 1567.66 L1574.17 1567.66 L1574.17 1561.78 Z" fill="#000000" fill-rule="nonzero" fill-opacity="1" /><path clip-path="url(#clip540)" d="M1589.29 1533.1 L1607.64 1533.1 L1607.64 1537.04 L1593.57 1537.04 L1593.57 1545.51 Q1594.59 1545.16 1595.61 1545 Q1596.62 1544.81 1597.64 1544.81 Q1603.43 1544.81 1606.81 1547.98 Q1610.19 1551.16 1610.19 1556.57 Q1610.19 1562.15 1606.72 1565.25 Q1603.24 1568.33 1596.92 1568.33 Q1594.75 1568.33 1592.48 1567.96 Q1590.23 1567.59 1587.83 1566.85 L1587.83 1562.15 Q1589.91 1563.28 1592.13 1563.84 Q1594.36 1564.4 1596.83 1564.4 Q1600.84 1564.4 1603.17 1562.29 Q1605.51 1560.18 1605.51 1556.57 Q1605.51 1552.96 1603.17 1550.85 Q1600.84 1548.75 1596.83 1548.75 Q1594.96 1548.75 1593.08 1549.16 Q1591.23 1549.58 1589.29 1550.46 L1589.29 1533.1 Z" fill="#000000" fill-rule="nonzero" fill-opacity="1" /><path clip-path="url(#clip540)" d="M1899.53 1563.72 L1907.17 1563.72 L1907.17 1537.36 L1898.86 1539.03 L1898.86 1534.77 L1907.12 1533.1 L1911.8 1533.1 L1911.8 1563.72 L1919.44 1563.72 L1919.44 1567.66 L1899.53 1567.66 L1899.53 1563.72 Z" fill="#000000" fill-rule="nonzero" fill-opacity="1" /><path clip-path="url(#clip540)" d="M1928.88 1561.78 L1933.77 1561.78 L1933.77 1567.66 L1928.88 1567.66 L1928.88 1561.78 Z" fill="#000000" fill-rule="nonzero" fill-opacity="1" /><path clip-path="url(#clip540)" d="M1953.95 1536.18 Q1950.34 1536.18 1948.51 1539.74 Q1946.71 1543.28 1946.71 1550.41 Q1946.71 1557.52 1948.51 1561.09 Q1950.34 1564.63 1953.95 1564.63 Q1957.59 1564.63 1959.39 1561.09 Q1961.22 1557.52 1961.22 1550.41 Q1961.22 1543.28 1959.39 1539.74 Q1957.59 1536.18 1953.95 1536.18 M1953.95 1532.47 Q1959.76 1532.47 1962.82 1537.08 Q1965.9 1541.66 1965.9 1550.41 Q1965.9 1559.14 1962.82 1563.75 Q1959.76 1568.33 1953.95 1568.33 Q1948.14 1568.33 1945.06 1563.75 Q1942.01 1559.14 1942.01 1550.41 Q1942.01 1541.66 1945.06 1537.08 Q1948.14 1532.47 1953.95 1532.47 Z" fill="#000000" fill-rule="nonzero" fill-opacity="1" /><path clip-path="url(#clip540)" d="M2256.28 1563.72 L2263.92 1563.72 L2263.92 1537.36 L2255.61 1539.03 L2255.61 1534.77 L2263.87 1533.1 L2268.55 1533.1 L2268.55 1563.72 L2276.19 1563.72 L2276.19 1567.66 L2256.28 1567.66 L2256.28 1563.72 Z" fill="#000000" fill-rule="nonzero" fill-opacity="1" /><path clip-path="url(#clip540)" d="M2285.63 1561.78 L2290.52 1561.78 L2290.52 1567.66 L2285.63 1567.66 L2285.63 1561.78 Z" fill="#000000" fill-rule="nonzero" fill-opacity="1" /><path clip-path="url(#clip540)" d="M2300.75 1533.1 L2319.1 1533.1 L2319.1 1537.04 L2305.03 1537.04 L2305.03 1545.51 Q2306.05 1545.16 2307.07 1545 Q2308.09 1544.81 2309.1 1544.81 Q2314.89 1544.81 2318.27 1547.98 Q2321.65 1551.16 2321.65 1556.57 Q2321.65 1562.15 2318.18 1565.25 Q2314.71 1568.33 2308.39 1568.33 Q2306.21 1568.33 2303.94 1567.96 Q2301.7 1567.59 2299.29 1566.85 L2299.29 1562.15 Q2301.37 1563.28 2303.6 1563.84 Q2305.82 1564.4 2308.29 1564.4 Q2312.3 1564.4 2314.64 1562.29 Q2316.98 1560.18 2316.98 1556.57 Q2316.98 1552.96 2314.64 1550.85 Q2312.3 1548.75 2308.29 1548.75 Q2306.42 1548.75 2304.54 1549.16 Q2302.69 1549.58 2300.75 1550.46 L2300.75 1533.1 Z" fill="#000000" fill-rule="nonzero" fill-opacity="1" /><path clip-path="url(#clip540)" d="M1236.49 1614.48 L1223.6 1631.82 L1237.16 1650.12 L1230.25 1650.12 L1219.87 1636.12 L1209.5 1650.12 L1202.59 1650.12 L1216.44 1631.47 L1203.77 1614.48 L1210.68 1614.48 L1220.13 1627.18 L1229.58 1614.48 L1236.49 1614.48 Z" fill="#000000" fill-rule="nonzero" fill-opacity="1" /><polyline clip-path="url(#clip542)" style="stroke:#000000; stroke-linecap:round; stroke-linejoin:round; stroke-width:2; stroke-opacity:0.1; fill:none" points="86.9921,1458.49 2352.76,1458.49 "/>
<polyline clip-path="url(#clip542)" style="stroke:#000000; stroke-linecap:round; stroke-linejoin:round; stroke-width:2; stroke-opacity:0.1; fill:none" points="86.9921,1059.95 2352.76,1059.95 "/>
<polyline clip-path="url(#clip542)" style="stroke:#000000; stroke-linecap:round; stroke-linejoin:round; stroke-width:2; stroke-opacity:0.1; fill:none" points="86.9921,661.412 2352.76,661.412 "/>
<polyline clip-path="url(#clip542)" style="stroke:#000000; stroke-linecap:round; stroke-linejoin:round; stroke-width:2; stroke-opacity:0.1; fill:none" points="86.9921,262.871 2352.76,262.871 "/>
<polyline clip-path="url(#clip540)" style="stroke:#000000; stroke-linecap:round; stroke-linejoin:round; stroke-width:4; stroke-opacity:1; fill:none" points="86.9921,1505.26 86.9921,47.2441 "/>
<polyline clip-path="url(#clip540)" style="stroke:#000000; stroke-linecap:round; stroke-linejoin:round; stroke-width:4; stroke-opacity:1; fill:none" points="86.9921,1458.49 105.89,1458.49 "/>
<polyline clip-path="url(#clip540)" style="stroke:#000000; stroke-linecap:round; stroke-linejoin:round; stroke-width:4; stroke-opacity:1; fill:none" points="86.9921,1059.95 105.89,1059.95 "/>
<polyline clip-path="url(#clip540)" style="stroke:#000000; stroke-linecap:round; stroke-linejoin:round; stroke-width:4; stroke-opacity:1; fill:none" points="86.9921,661.412 105.89,661.412 "/>
<polyline clip-path="url(#clip540)" style="stroke:#000000; stroke-linecap:round; stroke-linejoin:round; stroke-width:4; stroke-opacity:1; fill:none" points="86.9921,262.871 105.89,262.871 "/>
<path clip-path="url(#clip540)" d="M-9.49366 1458.95 L20.1821 1458.95 L20.1821 1462.88 L-9.49366 1462.88 L-9.49366 1458.95 Z" fill="#000000" fill-rule="nonzero" fill-opacity="1" /><path clip-path="url(#clip540)" d="M31.0848 1471.84 L38.7237 1471.84 L38.7237 1445.47 L30.4135 1447.14 L30.4135 1442.88 L38.6774 1441.21 L43.3533 1441.21 L43.3533 1471.84 L50.9921 1471.84 L50.9921 1475.77 L31.0848 1475.77 L31.0848 1471.84 Z" fill="#000000" fill-rule="nonzero" fill-opacity="1" /><path clip-path="url(#clip540)" d="M39.0477 1045.75 Q35.4367 1045.75 33.608 1049.32 Q31.8024 1052.86 31.8024 1059.99 Q31.8024 1067.09 33.608 1070.66 Q35.4367 1074.2 39.0477 1074.2 Q42.682 1074.2 44.4875 1070.66 Q46.3162 1067.09 46.3162 1059.99 Q46.3162 1052.86 44.4875 1049.32 Q42.682 1045.75 39.0477 1045.75 M39.0477 1042.05 Q44.8579 1042.05 47.9134 1046.65 Q50.9921 1051.24 50.9921 1059.99 Q50.9921 1068.71 47.9134 1073.32 Q44.8579 1077.9 39.0477 1077.9 Q33.2376 1077.9 30.1589 1073.32 Q27.1034 1068.71 27.1034 1059.99 Q27.1034 1051.24 30.1589 1046.65 Q33.2376 1042.05 39.0477 1042.05 Z" fill="#000000" fill-rule="nonzero" fill-opacity="1" /><path clip-path="url(#clip540)" d="M31.0848 674.757 L38.7237 674.757 L38.7237 648.391 L30.4135 650.058 L30.4135 645.799 L38.6774 644.132 L43.3533 644.132 L43.3533 674.757 L50.9921 674.757 L50.9921 678.692 L31.0848 678.692 L31.0848 674.757 Z" fill="#000000" fill-rule="nonzero" fill-opacity="1" /><path clip-path="url(#clip540)" d="M34.6728 276.215 L50.9921 276.215 L50.9921 280.151 L29.0478 280.151 L29.0478 276.215 Q31.7098 273.461 36.2931 268.831 Q40.8996 264.178 42.0801 262.836 Q44.3255 260.313 45.2051 258.577 Q46.1079 256.817 46.1079 255.128 Q46.1079 252.373 44.1635 250.637 Q42.2422 248.901 39.1403 248.901 Q36.9413 248.901 34.4876 249.665 Q32.057 250.429 29.2793 251.979 L29.2793 247.257 Q32.1033 246.123 34.557 245.544 Q37.0107 244.966 39.0477 244.966 Q44.4181 244.966 47.6125 247.651 Q50.8069 250.336 50.8069 254.827 Q50.8069 256.956 49.9968 258.878 Q49.2097 260.776 47.1033 263.368 Q46.5246 264.04 43.4227 267.257 Q40.3209 270.452 34.6728 276.215 Z" fill="#000000" fill-rule="nonzero" fill-opacity="1" /><polyline clip-path="url(#clip542)" style="stroke:#009af9; stroke-linecap:round; stroke-linejoin:round; stroke-width:4; stroke-opacity:1; fill:none" points="151.118,88.5087 172.709,198.915 194.3,300.932 215.891,394.948 237.482,481.341 259.073,560.483 280.664,632.736 302.255,698.456 323.846,757.989 345.437,811.673 367.028,859.84 388.619,902.813 410.21,940.904 431.801,974.423 453.392,1003.67 474.983,1028.92 496.574,1050.48 518.165,1068.61 539.756,1083.57 561.347,1095.63 582.938,1105.04 604.529,1112.03 626.12,1116.84 647.711,1119.71 669.302,1120.83 690.894,1120.44 712.485,1118.72 734.076,1115.87 755.667,1112.07 777.258,1107.51 798.849,1102.35 820.44,1096.76 842.031,1090.88 863.622,1084.86 885.213,1078.85 906.804,1072.96 928.395,1067.32 949.986,1062.04 971.577,1057.23 993.168,1052.99 1014.76,1049.39 1036.35,1046.53 1057.94,1044.48 1079.53,1043.3 1101.12,1043.04 1122.71,1043.76 1144.31,1045.49 1165.9,1048.28 1187.49,1052.13 1209.08,1057.07 1230.67,1063.11 1252.26,1070.24 1273.85,1078.47 1295.44,1087.76 1317.03,1098.11 1338.62,1109.46 1360.22,1121.8 1381.81,1135.06 1403.4,1149.19 1424.99,1164.13 1446.58,1179.8 1468.17,1196.12 1489.76,1213 1511.35,1230.36 1532.94,1248.07 1554.54,1266.04 1576.13,1284.13 1597.72,1302.23 1619.31,1320.18 1640.9,1337.85 1662.49,1355.09 1684.08,1371.73 1705.67,1387.6 1727.26,1402.53 1748.85,1416.32 1770.45,1428.8 1792.04,1439.75 1813.63,1448.96 1835.22,1456.22 1856.81,1461.31 1878.4,1463.98 1899.99,1464 1921.58,1461.11 1943.17,1455.06 1964.76,1445.58 1986.36,1432.4 2007.95,1415.23 2029.54,1393.79 2051.13,1367.78 2072.72,1336.88 2094.31,1300.79 2115.9,1259.18 2137.49,1211.73 2159.08,1158.09 2180.68,1097.91 2202.27,1030.85 2223.86,956.529 2245.45,874.59 2267.04,784.65 2288.63,686.321 "/>
<polyline clip-path="url(#clip542)" style="stroke:#e26f46; stroke-linecap:round; stroke-linejoin:round; stroke-width:4; stroke-opacity:1; fill:none" points="151.118,686.321 172.709,784.65 194.3,874.59 215.891,956.529 237.482,1030.85 259.073,1097.91 280.664,1158.09 302.255,1211.73 323.846,1259.18 345.437,1300.79 367.028,1336.88 388.619,1367.78 410.21,1393.79 431.801,1415.23 453.392,1432.4 474.983,1445.58 496.574,1455.06 518.165,1461.11 539.756,1464 561.347,1463.98 582.938,1461.31 604.529,1456.22 626.12,1448.96 647.711,1439.75 669.302,1428.8 690.894,1416.32 712.485,1402.53 734.076,1387.6 755.667,1371.73 777.258,1355.09 798.849,1337.85 820.44,1320.18 842.031,1302.23 863.622,1284.13 885.213,1266.04 906.804,1248.07 928.395,1230.36 949.986,1213 971.577,1196.12 993.168,1179.8 1014.76,1164.13 1036.35,1149.19 1057.94,1135.06 1079.53,1121.8 1101.12,1109.46 1122.71,1098.11 1144.31,1087.76 1165.9,1078.47 1187.49,1070.24 1209.08,1063.11 1230.67,1057.07 1252.26,1052.13 1273.85,1048.28 1295.44,1045.49 1317.03,1043.76 1338.62,1043.04 1360.22,1043.3 1381.81,1044.48 1403.4,1046.53 1424.99,1049.39 1446.58,1052.99 1468.17,1057.23 1489.76,1062.04 1511.35,1067.32 1532.94,1072.96 1554.54,1078.85 1576.13,1084.86 1597.72,1090.88 1619.31,1096.76 1640.9,1102.35 1662.49,1107.51 1684.08,1112.07 1705.67,1115.87 1727.26,1118.72 1748.85,1120.44 1770.45,1120.83 1792.04,1119.71 1813.63,1116.84 1835.22,1112.03 1856.81,1105.04 1878.4,1095.63 1899.99,1083.57 1921.58,1068.61 1943.17,1050.48 1964.76,1028.92 1986.36,1003.67 2007.95,974.423 2029.54,940.904 2051.13,902.813 2072.72,859.84 2094.31,811.673 2115.9,757.989 2137.49,698.456 2159.08,632.736 2180.68,560.483 2202.27,481.341 2223.86,394.948 2245.45,300.932 2267.04,198.915 2288.63,88.5087 "/>
<path clip-path="url(#clip540)" d="M1287.37 251.365 L2277.23 251.365 L2277.23 95.8446 L1287.37 95.8446  Z" fill="#ffffff" fill-rule="evenodd" fill-opacity="1"/>
<polyline clip-path="url(#clip540)" style="stroke:#000000; stroke-linecap:round; stroke-linejoin:round; stroke-width:4; stroke-opacity:1; fill:none" points="1287.37,251.365 2277.23,251.365 2277.23,95.8446 1287.37,95.8446 1287.37,251.365 "/>
<polyline clip-path="url(#clip540)" style="stroke:#009af9; stroke-linecap:round; stroke-linejoin:round; stroke-width:4; stroke-opacity:1; fill:none" points="1312.55,147.685 1463.6,147.685 "/>
<path clip-path="url(#clip540)" d="M1504.61 135.011 L1498.26 152.21 L1510.97 152.21 L1504.61 135.011 M1501.97 130.405 L1507.27 130.405 L1520.44 164.965 L1515.58 164.965 L1512.43 156.099 L1496.85 156.099 L1493.7 164.965 L1488.77 164.965 L1501.97 130.405 Z" fill="#000000" fill-rule="nonzero" fill-opacity="1" /><path clip-path="url(#clip540)" d="M1541.83 139.803 L1541.83 143.83 Q1540.02 142.905 1538.08 142.442 Q1536.13 141.979 1534.05 141.979 Q1530.88 141.979 1529.28 142.951 Q1527.71 143.923 1527.71 145.867 Q1527.71 147.349 1528.84 148.205 Q1529.98 149.039 1533.4 149.803 L1534.86 150.127 Q1539.4 151.099 1541.3 152.881 Q1543.22 154.641 1543.22 157.812 Q1543.22 161.423 1540.35 163.529 Q1537.5 165.636 1532.5 165.636 Q1530.42 165.636 1528.15 165.219 Q1525.9 164.826 1523.4 164.016 L1523.4 159.617 Q1525.76 160.844 1528.05 161.469 Q1530.35 162.071 1532.59 162.071 Q1535.6 162.071 1537.22 161.053 Q1538.84 160.011 1538.84 158.136 Q1538.84 156.4 1537.66 155.474 Q1536.5 154.548 1532.55 153.692 L1531.06 153.344 Q1527.11 152.511 1525.35 150.798 Q1523.59 149.062 1523.59 146.053 Q1523.59 142.395 1526.18 140.405 Q1528.77 138.414 1533.54 138.414 Q1535.9 138.414 1537.99 138.761 Q1540.07 139.108 1541.83 139.803 Z" fill="#000000" fill-rule="nonzero" fill-opacity="1" /><path clip-path="url(#clip540)" d="M1560.79 167.372 Q1558.98 172.002 1557.27 173.414 Q1555.55 174.826 1552.68 174.826 L1549.28 174.826 L1549.28 171.261 L1551.78 171.261 Q1553.54 171.261 1554.51 170.428 Q1555.48 169.594 1556.67 166.492 L1557.43 164.548 L1546.94 139.039 L1551.46 139.039 L1559.56 159.317 L1567.66 139.039 L1572.17 139.039 L1560.79 167.372 Z" fill="#000000" fill-rule="nonzero" fill-opacity="1" /><path clip-path="url(#clip540)" d="M1598.24 144.016 Q1599.84 141.145 1602.06 139.78 Q1604.28 138.414 1607.29 138.414 Q1611.34 138.414 1613.54 141.261 Q1615.74 144.085 1615.74 149.317 L1615.74 164.965 L1611.46 164.965 L1611.46 149.455 Q1611.46 145.729 1610.14 143.923 Q1608.82 142.118 1606.11 142.118 Q1602.8 142.118 1600.88 144.317 Q1598.96 146.516 1598.96 150.312 L1598.96 164.965 L1594.67 164.965 L1594.67 149.455 Q1594.67 145.705 1593.36 143.923 Q1592.04 142.118 1589.28 142.118 Q1586.02 142.118 1584.1 144.34 Q1582.17 146.539 1582.17 150.312 L1582.17 164.965 L1577.89 164.965 L1577.89 139.039 L1582.17 139.039 L1582.17 143.067 Q1583.63 140.682 1585.67 139.548 Q1587.71 138.414 1590.51 138.414 Q1593.33 138.414 1595.3 139.849 Q1597.29 141.284 1598.24 144.016 Z" fill="#000000" fill-rule="nonzero" fill-opacity="1" /><path clip-path="url(#clip540)" d="M1644.42 144.016 Q1646.02 141.145 1648.24 139.78 Q1650.46 138.414 1653.47 138.414 Q1657.52 138.414 1659.72 141.261 Q1661.92 144.085 1661.92 149.317 L1661.92 164.965 L1657.64 164.965 L1657.64 149.455 Q1657.64 145.729 1656.32 143.923 Q1655 142.118 1652.29 142.118 Q1648.98 142.118 1647.06 144.317 Q1645.14 146.516 1645.14 150.312 L1645.14 164.965 L1640.85 164.965 L1640.85 149.455 Q1640.85 145.705 1639.54 143.923 Q1638.22 142.118 1635.46 142.118 Q1632.2 142.118 1630.28 144.34 Q1628.35 146.539 1628.35 150.312 L1628.35 164.965 L1624.07 164.965 L1624.07 139.039 L1628.35 139.039 L1628.35 143.067 Q1629.81 140.682 1631.85 139.548 Q1633.89 138.414 1636.69 138.414 Q1639.51 138.414 1641.48 139.849 Q1643.47 141.284 1644.42 144.016 Z" fill="#000000" fill-rule="nonzero" fill-opacity="1" /><path clip-path="url(#clip540)" d="M1692.59 150.937 L1692.59 153.02 L1673.01 153.02 Q1673.29 157.418 1675.65 159.733 Q1678.03 162.025 1682.27 162.025 Q1684.72 162.025 1687.01 161.423 Q1689.33 160.821 1691.6 159.617 L1691.6 163.645 Q1689.3 164.617 1686.9 165.127 Q1684.49 165.636 1682.01 165.636 Q1675.81 165.636 1672.17 162.025 Q1668.56 158.414 1668.56 152.256 Q1668.56 145.891 1671.99 142.164 Q1675.44 138.414 1681.27 138.414 Q1686.5 138.414 1689.54 141.793 Q1692.59 145.15 1692.59 150.937 M1688.33 149.687 Q1688.29 146.192 1686.36 144.108 Q1684.47 142.025 1681.32 142.025 Q1677.75 142.025 1675.6 144.039 Q1673.47 146.053 1673.15 149.71 L1688.33 149.687 Z" fill="#000000" fill-rule="nonzero" fill-opacity="1" /><path clip-path="url(#clip540)" d="M1703.79 131.678 L1703.79 139.039 L1712.57 139.039 L1712.57 142.349 L1703.79 142.349 L1703.79 156.423 Q1703.79 159.594 1704.65 160.497 Q1705.53 161.4 1708.19 161.4 L1712.57 161.4 L1712.57 164.965 L1708.19 164.965 Q1703.26 164.965 1701.39 163.136 Q1699.51 161.284 1699.51 156.423 L1699.51 142.349 L1696.39 142.349 L1696.39 139.039 L1699.51 139.039 L1699.51 131.678 L1703.79 131.678 Z" fill="#000000" fill-rule="nonzero" fill-opacity="1" /><path clip-path="url(#clip540)" d="M1733.19 143.02 Q1732.47 142.604 1731.62 142.418 Q1730.78 142.21 1729.77 142.21 Q1726.16 142.21 1724.21 144.571 Q1722.29 146.909 1722.29 151.307 L1722.29 164.965 L1718.01 164.965 L1718.01 139.039 L1722.29 139.039 L1722.29 143.067 Q1723.63 140.705 1725.78 139.571 Q1727.94 138.414 1731.02 138.414 Q1731.46 138.414 1731.99 138.483 Q1732.52 138.53 1733.17 138.645 L1733.19 143.02 Z" fill="#000000" fill-rule="nonzero" fill-opacity="1" /><path clip-path="url(#clip540)" d="M1737.66 139.039 L1741.92 139.039 L1741.92 164.965 L1737.66 164.965 L1737.66 139.039 M1737.66 128.946 L1741.92 128.946 L1741.92 134.34 L1737.66 134.34 L1737.66 128.946 Z" fill="#000000" fill-rule="nonzero" fill-opacity="1" /><path clip-path="url(#clip540)" d="M1769.49 140.034 L1769.49 144.016 Q1767.68 143.02 1765.85 142.534 Q1764.05 142.025 1762.2 142.025 Q1758.05 142.025 1755.76 144.664 Q1753.47 147.28 1753.47 152.025 Q1753.47 156.77 1755.76 159.409 Q1758.05 162.025 1762.2 162.025 Q1764.05 162.025 1765.85 161.539 Q1767.68 161.029 1769.49 160.034 L1769.49 163.969 Q1767.71 164.803 1765.78 165.219 Q1763.89 165.636 1761.73 165.636 Q1755.88 165.636 1752.43 161.955 Q1748.98 158.275 1748.98 152.025 Q1748.98 145.682 1752.45 142.048 Q1755.95 138.414 1762.01 138.414 Q1763.98 138.414 1765.85 138.831 Q1767.73 139.224 1769.49 140.034 Z" fill="#000000" fill-rule="nonzero" fill-opacity="1" /><path clip-path="url(#clip540)" d="M1796.83 134.247 L1796.83 161.122 L1802.47 161.122 Q1809.63 161.122 1812.94 157.881 Q1816.27 154.641 1816.27 147.65 Q1816.27 140.705 1812.94 137.488 Q1809.63 134.247 1802.47 134.247 L1796.83 134.247 M1792.15 130.405 L1801.76 130.405 Q1811.8 130.405 1816.5 134.594 Q1821.2 138.761 1821.2 147.65 Q1821.2 156.585 1816.48 160.775 Q1811.76 164.965 1801.76 164.965 L1792.15 164.965 L1792.15 130.405 Z" fill="#000000" fill-rule="nonzero" fill-opacity="1" /><path clip-path="url(#clip540)" d="M1838.52 142.025 Q1835.09 142.025 1833.1 144.71 Q1831.11 147.372 1831.11 152.025 Q1831.11 156.678 1833.08 159.363 Q1835.07 162.025 1838.52 162.025 Q1841.92 162.025 1843.91 159.34 Q1845.9 156.654 1845.9 152.025 Q1845.9 147.418 1843.91 144.733 Q1841.92 142.025 1838.52 142.025 M1838.52 138.414 Q1844.07 138.414 1847.24 142.025 Q1850.41 145.636 1850.41 152.025 Q1850.41 158.391 1847.24 162.025 Q1844.07 165.636 1838.52 165.636 Q1832.94 165.636 1829.77 162.025 Q1826.62 158.391 1826.62 152.025 Q1826.62 145.636 1829.77 142.025 Q1832.94 138.414 1838.52 138.414 Z" fill="#000000" fill-rule="nonzero" fill-opacity="1" /><path clip-path="url(#clip540)" d="M1857.03 154.733 L1857.03 139.039 L1861.29 139.039 L1861.29 154.571 Q1861.29 158.252 1862.73 160.104 Q1864.16 161.932 1867.03 161.932 Q1870.48 161.932 1872.47 159.733 Q1874.49 157.534 1874.49 153.738 L1874.49 139.039 L1878.75 139.039 L1878.75 164.965 L1874.49 164.965 L1874.49 160.983 Q1872.94 163.344 1870.88 164.502 Q1868.84 165.636 1866.13 165.636 Q1861.66 165.636 1859.35 162.858 Q1857.03 160.08 1857.03 154.733 M1867.75 138.414 L1867.75 138.414 Z" fill="#000000" fill-rule="nonzero" fill-opacity="1" /><path clip-path="url(#clip540)" d="M1906.13 152.025 Q1906.13 147.326 1904.19 144.664 Q1902.27 141.979 1898.89 141.979 Q1895.51 141.979 1893.56 144.664 Q1891.64 147.326 1891.64 152.025 Q1891.64 156.724 1893.56 159.409 Q1895.51 162.071 1898.89 162.071 Q1902.27 162.071 1904.19 159.409 Q1906.13 156.724 1906.13 152.025 M1891.64 142.974 Q1892.98 140.659 1895.02 139.548 Q1897.08 138.414 1899.93 138.414 Q1904.65 138.414 1907.59 142.164 Q1910.55 145.914 1910.55 152.025 Q1910.55 158.136 1907.59 161.886 Q1904.65 165.636 1899.93 165.636 Q1897.08 165.636 1895.02 164.525 Q1892.98 163.391 1891.64 161.076 L1891.64 164.965 L1887.36 164.965 L1887.36 128.946 L1891.64 128.946 L1891.64 142.974 Z" fill="#000000" fill-rule="nonzero" fill-opacity="1" /><path clip-path="url(#clip540)" d="M1917.61 128.946 L1921.87 128.946 L1921.87 164.965 L1917.61 164.965 L1917.61 128.946 Z" fill="#000000" fill-rule="nonzero" fill-opacity="1" /><path clip-path="url(#clip540)" d="M1952.96 150.937 L1952.96 153.02 L1933.38 153.02 Q1933.65 157.418 1936.02 159.733 Q1938.4 162.025 1942.64 162.025 Q1945.09 162.025 1947.38 161.423 Q1949.7 160.821 1951.96 159.617 L1951.96 163.645 Q1949.67 164.617 1947.27 165.127 Q1944.86 165.636 1942.38 165.636 Q1936.18 165.636 1932.54 162.025 Q1928.93 158.414 1928.93 152.256 Q1928.93 145.891 1932.36 142.164 Q1935.81 138.414 1941.64 138.414 Q1946.87 138.414 1949.9 141.793 Q1952.96 145.15 1952.96 150.937 M1948.7 149.687 Q1948.65 146.192 1946.73 144.108 Q1944.83 142.025 1941.69 142.025 Q1938.12 142.025 1935.97 144.039 Q1933.84 146.053 1933.52 149.71 L1948.7 149.687 Z" fill="#000000" fill-rule="nonzero" fill-opacity="1" /><path clip-path="url(#clip540)" d="M1957.47 139.039 L1961.73 139.039 L1967.06 159.27 L1972.36 139.039 L1977.38 139.039 L1982.7 159.27 L1988.01 139.039 L1992.27 139.039 L1985.48 164.965 L1980.46 164.965 L1974.88 143.715 L1969.28 164.965 L1964.26 164.965 L1957.47 139.039 Z" fill="#000000" fill-rule="nonzero" fill-opacity="1" /><path clip-path="url(#clip540)" d="M2020.9 150.937 L2020.9 153.02 L2001.32 153.02 Q2001.59 157.418 2003.95 159.733 Q2006.34 162.025 2010.58 162.025 Q2013.03 162.025 2015.32 161.423 Q2017.64 160.821 2019.9 159.617 L2019.9 163.645 Q2017.61 164.617 2015.2 165.127 Q2012.8 165.636 2010.32 165.636 Q2004.12 165.636 2000.48 162.025 Q1996.87 158.414 1996.87 152.256 Q1996.87 145.891 2000.3 142.164 Q2003.75 138.414 2009.58 138.414 Q2014.81 138.414 2017.84 141.793 Q2020.9 145.15 2020.9 150.937 M2016.64 149.687 Q2016.59 146.192 2014.67 144.108 Q2012.77 142.025 2009.63 142.025 Q2006.06 142.025 2003.91 144.039 Q2001.78 146.053 2001.45 149.71 L2016.64 149.687 Z" fill="#000000" fill-rule="nonzero" fill-opacity="1" /><path clip-path="url(#clip540)" d="M2027.89 128.946 L2032.15 128.946 L2032.15 164.965 L2027.89 164.965 L2027.89 128.946 Z" fill="#000000" fill-rule="nonzero" fill-opacity="1" /><path clip-path="url(#clip540)" d="M2041.06 128.946 L2045.32 128.946 L2045.32 164.965 L2041.06 164.965 L2041.06 128.946 Z" fill="#000000" fill-rule="nonzero" fill-opacity="1" /><path clip-path="url(#clip540)" d="M2055.32 159.085 L2060.2 159.085 L2060.2 163.066 L2056.41 170.474 L2053.42 170.474 L2055.32 163.066 L2055.32 159.085 Z" fill="#000000" fill-rule="nonzero" fill-opacity="1" /><path clip-path="url(#clip540)" d="M2089.23 134.247 L2089.23 161.122 L2094.88 161.122 Q2102.03 161.122 2105.34 157.881 Q2108.68 154.641 2108.68 147.65 Q2108.68 140.705 2105.34 137.488 Q2102.03 134.247 2094.88 134.247 L2089.23 134.247 M2084.56 130.405 L2094.16 130.405 Q2104.21 130.405 2108.91 134.594 Q2113.61 138.761 2113.61 147.65 Q2113.61 156.585 2108.88 160.775 Q2104.16 164.965 2094.16 164.965 L2084.56 164.965 L2084.56 130.405 Z" fill="#000000" fill-rule="nonzero" fill-opacity="1" /><path clip-path="url(#clip540)" d="M2143.05 150.937 L2143.05 153.02 L2123.47 153.02 Q2123.75 157.418 2126.11 159.733 Q2128.49 162.025 2132.73 162.025 Q2135.18 162.025 2137.47 161.423 Q2139.79 160.821 2142.06 159.617 L2142.06 163.645 Q2139.76 164.617 2137.36 165.127 Q2134.95 165.636 2132.47 165.636 Q2126.27 165.636 2122.63 162.025 Q2119.02 158.414 2119.02 152.256 Q2119.02 145.891 2122.45 142.164 Q2125.9 138.414 2131.73 138.414 Q2136.96 138.414 2140 141.793 Q2143.05 145.15 2143.05 150.937 M2138.79 149.687 Q2138.75 146.192 2136.82 144.108 Q2134.93 142.025 2131.78 142.025 Q2128.21 142.025 2126.06 144.039 Q2123.93 146.053 2123.61 149.71 L2138.79 149.687 Z" fill="#000000" fill-rule="nonzero" fill-opacity="1" /><path clip-path="url(#clip540)" d="M2163.17 128.946 L2163.17 132.488 L2159.09 132.488 Q2156.8 132.488 2155.9 133.414 Q2155.02 134.34 2155.02 136.747 L2155.02 139.039 L2162.03 139.039 L2162.03 142.349 L2155.02 142.349 L2155.02 164.965 L2150.74 164.965 L2150.74 142.349 L2146.66 142.349 L2146.66 139.039 L2150.74 139.039 L2150.74 137.233 Q2150.74 132.905 2152.75 130.937 Q2154.76 128.946 2159.14 128.946 L2163.17 128.946 Z" fill="#000000" fill-rule="nonzero" fill-opacity="1" /><path clip-path="url(#clip540)" d="M2178.51 151.932 Q2173.35 151.932 2171.36 153.113 Q2169.37 154.293 2169.37 157.141 Q2169.37 159.409 2170.85 160.752 Q2172.36 162.071 2174.93 162.071 Q2178.47 162.071 2180.6 159.571 Q2182.75 157.048 2182.75 152.881 L2182.75 151.932 L2178.51 151.932 M2187.01 150.173 L2187.01 164.965 L2182.75 164.965 L2182.75 161.029 Q2181.29 163.391 2179.12 164.525 Q2176.94 165.636 2173.79 165.636 Q2169.81 165.636 2167.45 163.414 Q2165.11 161.168 2165.11 157.418 Q2165.11 153.043 2168.03 150.821 Q2170.97 148.599 2176.78 148.599 L2182.75 148.599 L2182.75 148.182 Q2182.75 145.243 2180.81 143.645 Q2178.88 142.025 2175.39 142.025 Q2173.17 142.025 2171.06 142.557 Q2168.95 143.09 2167.01 144.155 L2167.01 140.219 Q2169.35 139.317 2171.55 138.877 Q2173.75 138.414 2175.83 138.414 Q2181.45 138.414 2184.23 141.33 Q2187.01 144.247 2187.01 150.173 Z" fill="#000000" fill-rule="nonzero" fill-opacity="1" /><path clip-path="url(#clip540)" d="M2195.34 154.733 L2195.34 139.039 L2199.6 139.039 L2199.6 154.571 Q2199.6 158.252 2201.04 160.104 Q2202.47 161.932 2205.34 161.932 Q2208.79 161.932 2210.78 159.733 Q2212.8 157.534 2212.8 153.738 L2212.8 139.039 L2217.06 139.039 L2217.06 164.965 L2212.8 164.965 L2212.8 160.983 Q2211.25 163.344 2209.19 164.502 Q2207.15 165.636 2204.44 165.636 Q2199.97 165.636 2197.66 162.858 Q2195.34 160.08 2195.34 154.733 M2206.06 138.414 L2206.06 138.414 Z" fill="#000000" fill-rule="nonzero" fill-opacity="1" /><path clip-path="url(#clip540)" d="M2225.83 128.946 L2230.09 128.946 L2230.09 164.965 L2225.83 164.965 L2225.83 128.946 Z" fill="#000000" fill-rule="nonzero" fill-opacity="1" /><path clip-path="url(#clip540)" d="M2243.21 131.678 L2243.21 139.039 L2251.99 139.039 L2251.99 142.349 L2243.21 142.349 L2243.21 156.423 Q2243.21 159.594 2244.07 160.497 Q2244.95 161.4 2247.61 161.4 L2251.99 161.4 L2251.99 164.965 L2247.61 164.965 Q2242.68 164.965 2240.81 163.136 Q2238.93 161.284 2238.93 156.423 L2238.93 142.349 L2235.81 142.349 L2235.81 139.039 L2238.93 139.039 L2238.93 131.678 L2243.21 131.678 Z" fill="#000000" fill-rule="nonzero" fill-opacity="1" /><polyline clip-path="url(#clip540)" style="stroke:#e26f46; stroke-linecap:round; stroke-linejoin:round; stroke-width:4; stroke-opacity:1; fill:none" points="1312.55,199.525 1463.6,199.525 "/>
<path clip-path="url(#clip540)" d="M1504.61 186.851 L1498.26 204.05 L1510.97 204.05 L1504.61 186.851 M1501.97 182.245 L1507.27 182.245 L1520.44 216.805 L1515.58 216.805 L1512.43 207.939 L1496.85 207.939 L1493.7 216.805 L1488.77 216.805 L1501.97 182.245 Z" fill="#000000" fill-rule="nonzero" fill-opacity="1" /><path clip-path="url(#clip540)" d="M1541.83 191.643 L1541.83 195.67 Q1540.02 194.745 1538.08 194.282 Q1536.13 193.819 1534.05 193.819 Q1530.88 193.819 1529.28 194.791 Q1527.71 195.763 1527.71 197.707 Q1527.71 199.189 1528.84 200.045 Q1529.98 200.879 1533.4 201.643 L1534.86 201.967 Q1539.4 202.939 1541.3 204.721 Q1543.22 206.481 1543.22 209.652 Q1543.22 213.263 1540.35 215.369 Q1537.5 217.476 1532.5 217.476 Q1530.42 217.476 1528.15 217.059 Q1525.9 216.666 1523.4 215.856 L1523.4 211.457 Q1525.76 212.684 1528.05 213.309 Q1530.35 213.911 1532.59 213.911 Q1535.6 213.911 1537.22 212.893 Q1538.84 211.851 1538.84 209.976 Q1538.84 208.24 1537.66 207.314 Q1536.5 206.388 1532.55 205.532 L1531.06 205.184 Q1527.11 204.351 1525.35 202.638 Q1523.59 200.902 1523.59 197.893 Q1523.59 194.235 1526.18 192.245 Q1528.77 190.254 1533.54 190.254 Q1535.9 190.254 1537.99 190.601 Q1540.07 190.948 1541.83 191.643 Z" fill="#000000" fill-rule="nonzero" fill-opacity="1" /><path clip-path="url(#clip540)" d="M1560.79 219.212 Q1558.98 223.842 1557.27 225.254 Q1555.55 226.666 1552.68 226.666 L1549.28 226.666 L1549.28 223.101 L1551.78 223.101 Q1553.54 223.101 1554.51 222.268 Q1555.48 221.434 1556.67 218.332 L1557.43 216.388 L1546.94 190.879 L1551.46 190.879 L1559.56 211.157 L1567.66 190.879 L1572.17 190.879 L1560.79 219.212 Z" fill="#000000" fill-rule="nonzero" fill-opacity="1" /><path clip-path="url(#clip540)" d="M1598.24 195.856 Q1599.84 192.985 1602.06 191.62 Q1604.28 190.254 1607.29 190.254 Q1611.34 190.254 1613.54 193.101 Q1615.74 195.925 1615.74 201.157 L1615.74 216.805 L1611.46 216.805 L1611.46 201.295 Q1611.46 197.569 1610.14 195.763 Q1608.82 193.958 1606.11 193.958 Q1602.8 193.958 1600.88 196.157 Q1598.96 198.356 1598.96 202.152 L1598.96 216.805 L1594.67 216.805 L1594.67 201.295 Q1594.67 197.545 1593.36 195.763 Q1592.04 193.958 1589.28 193.958 Q1586.02 193.958 1584.1 196.18 Q1582.17 198.379 1582.17 202.152 L1582.17 216.805 L1577.89 216.805 L1577.89 190.879 L1582.17 190.879 L1582.17 194.907 Q1583.63 192.522 1585.67 191.388 Q1587.71 190.254 1590.51 190.254 Q1593.33 190.254 1595.3 191.689 Q1597.29 193.124 1598.24 195.856 Z" fill="#000000" fill-rule="nonzero" fill-opacity="1" /><path clip-path="url(#clip540)" d="M1644.42 195.856 Q1646.02 192.985 1648.24 191.62 Q1650.46 190.254 1653.47 190.254 Q1657.52 190.254 1659.72 193.101 Q1661.92 195.925 1661.92 201.157 L1661.92 216.805 L1657.64 216.805 L1657.64 201.295 Q1657.64 197.569 1656.32 195.763 Q1655 193.958 1652.29 193.958 Q1648.98 193.958 1647.06 196.157 Q1645.14 198.356 1645.14 202.152 L1645.14 216.805 L1640.85 216.805 L1640.85 201.295 Q1640.85 197.545 1639.54 195.763 Q1638.22 193.958 1635.46 193.958 Q1632.2 193.958 1630.28 196.18 Q1628.35 198.379 1628.35 202.152 L1628.35 216.805 L1624.07 216.805 L1624.07 190.879 L1628.35 190.879 L1628.35 194.907 Q1629.81 192.522 1631.85 191.388 Q1633.89 190.254 1636.69 190.254 Q1639.51 190.254 1641.48 191.689 Q1643.47 193.124 1644.42 195.856 Z" fill="#000000" fill-rule="nonzero" fill-opacity="1" /><path clip-path="url(#clip540)" d="M1692.59 202.777 L1692.59 204.86 L1673.01 204.86 Q1673.29 209.258 1675.65 211.573 Q1678.03 213.865 1682.27 213.865 Q1684.72 213.865 1687.01 213.263 Q1689.33 212.661 1691.6 211.457 L1691.6 215.485 Q1689.3 216.457 1686.9 216.967 Q1684.49 217.476 1682.01 217.476 Q1675.81 217.476 1672.17 213.865 Q1668.56 210.254 1668.56 204.096 Q1668.56 197.731 1671.99 194.004 Q1675.44 190.254 1681.27 190.254 Q1686.5 190.254 1689.54 193.633 Q1692.59 196.99 1692.59 202.777 M1688.33 201.527 Q1688.29 198.032 1686.36 195.948 Q1684.47 193.865 1681.32 193.865 Q1677.75 193.865 1675.6 195.879 Q1673.47 197.893 1673.15 201.55 L1688.33 201.527 Z" fill="#000000" fill-rule="nonzero" fill-opacity="1" /><path clip-path="url(#clip540)" d="M1703.79 183.518 L1703.79 190.879 L1712.57 190.879 L1712.57 194.189 L1703.79 194.189 L1703.79 208.263 Q1703.79 211.434 1704.65 212.337 Q1705.53 213.24 1708.19 213.24 L1712.57 213.24 L1712.57 216.805 L1708.19 216.805 Q1703.26 216.805 1701.39 214.976 Q1699.51 213.124 1699.51 208.263 L1699.51 194.189 L1696.39 194.189 L1696.39 190.879 L1699.51 190.879 L1699.51 183.518 L1703.79 183.518 Z" fill="#000000" fill-rule="nonzero" fill-opacity="1" /><path clip-path="url(#clip540)" d="M1733.19 194.86 Q1732.47 194.444 1731.62 194.258 Q1730.78 194.05 1729.77 194.05 Q1726.16 194.05 1724.21 196.411 Q1722.29 198.749 1722.29 203.147 L1722.29 216.805 L1718.01 216.805 L1718.01 190.879 L1722.29 190.879 L1722.29 194.907 Q1723.63 192.545 1725.78 191.411 Q1727.94 190.254 1731.02 190.254 Q1731.46 190.254 1731.99 190.323 Q1732.52 190.37 1733.17 190.485 L1733.19 194.86 Z" fill="#000000" fill-rule="nonzero" fill-opacity="1" /><path clip-path="url(#clip540)" d="M1737.66 190.879 L1741.92 190.879 L1741.92 216.805 L1737.66 216.805 L1737.66 190.879 M1737.66 180.786 L1741.92 180.786 L1741.92 186.18 L1737.66 186.18 L1737.66 180.786 Z" fill="#000000" fill-rule="nonzero" fill-opacity="1" /><path clip-path="url(#clip540)" d="M1769.49 191.874 L1769.49 195.856 Q1767.68 194.86 1765.85 194.374 Q1764.05 193.865 1762.2 193.865 Q1758.05 193.865 1755.76 196.504 Q1753.47 199.12 1753.47 203.865 Q1753.47 208.61 1755.76 211.249 Q1758.05 213.865 1762.2 213.865 Q1764.05 213.865 1765.85 213.379 Q1767.68 212.869 1769.49 211.874 L1769.49 215.809 Q1767.71 216.643 1765.78 217.059 Q1763.89 217.476 1761.73 217.476 Q1755.88 217.476 1752.43 213.795 Q1748.98 210.115 1748.98 203.865 Q1748.98 197.522 1752.45 193.888 Q1755.95 190.254 1762.01 190.254 Q1763.98 190.254 1765.85 190.671 Q1767.73 191.064 1769.49 191.874 Z" fill="#000000" fill-rule="nonzero" fill-opacity="1" /><path clip-path="url(#clip540)" d="M1796.83 186.087 L1796.83 212.962 L1802.47 212.962 Q1809.63 212.962 1812.94 209.721 Q1816.27 206.481 1816.27 199.49 Q1816.27 192.545 1812.94 189.328 Q1809.63 186.087 1802.47 186.087 L1796.83 186.087 M1792.15 182.245 L1801.76 182.245 Q1811.8 182.245 1816.5 186.434 Q1821.2 190.601 1821.2 199.49 Q1821.2 208.425 1816.48 212.615 Q1811.76 216.805 1801.76 216.805 L1792.15 216.805 L1792.15 182.245 Z" fill="#000000" fill-rule="nonzero" fill-opacity="1" /><path clip-path="url(#clip540)" d="M1838.52 193.865 Q1835.09 193.865 1833.1 196.55 Q1831.11 199.212 1831.11 203.865 Q1831.11 208.518 1833.08 211.203 Q1835.07 213.865 1838.52 213.865 Q1841.92 213.865 1843.91 211.18 Q1845.9 208.494 1845.9 203.865 Q1845.9 199.258 1843.91 196.573 Q1841.92 193.865 1838.52 193.865 M1838.52 190.254 Q1844.07 190.254 1847.24 193.865 Q1850.41 197.476 1850.41 203.865 Q1850.41 210.231 1847.24 213.865 Q1844.07 217.476 1838.52 217.476 Q1832.94 217.476 1829.77 213.865 Q1826.62 210.231 1826.62 203.865 Q1826.62 197.476 1829.77 193.865 Q1832.94 190.254 1838.52 190.254 Z" fill="#000000" fill-rule="nonzero" fill-opacity="1" /><path clip-path="url(#clip540)" d="M1857.03 206.573 L1857.03 190.879 L1861.29 190.879 L1861.29 206.411 Q1861.29 210.092 1862.73 211.944 Q1864.16 213.772 1867.03 213.772 Q1870.48 213.772 1872.47 211.573 Q1874.49 209.374 1874.49 205.578 L1874.49 190.879 L1878.75 190.879 L1878.75 216.805 L1874.49 216.805 L1874.49 212.823 Q1872.94 215.184 1870.88 216.342 Q1868.84 217.476 1866.13 217.476 Q1861.66 217.476 1859.35 214.698 Q1857.03 211.92 1857.03 206.573 M1867.75 190.254 L1867.75 190.254 Z" fill="#000000" fill-rule="nonzero" fill-opacity="1" /><path clip-path="url(#clip540)" d="M1906.13 203.865 Q1906.13 199.166 1904.19 196.504 Q1902.27 193.819 1898.89 193.819 Q1895.51 193.819 1893.56 196.504 Q1891.64 199.166 1891.64 203.865 Q1891.64 208.564 1893.56 211.249 Q1895.51 213.911 1898.89 213.911 Q1902.27 213.911 1904.19 211.249 Q1906.13 208.564 1906.13 203.865 M1891.64 194.814 Q1892.98 192.499 1895.02 191.388 Q1897.08 190.254 1899.93 190.254 Q1904.65 190.254 1907.59 194.004 Q1910.55 197.754 1910.55 203.865 Q1910.55 209.976 1907.59 213.726 Q1904.65 217.476 1899.93 217.476 Q1897.08 217.476 1895.02 216.365 Q1892.98 215.231 1891.64 212.916 L1891.64 216.805 L1887.36 216.805 L1887.36 180.786 L1891.64 180.786 L1891.64 194.814 Z" fill="#000000" fill-rule="nonzero" fill-opacity="1" /><path clip-path="url(#clip540)" d="M1917.61 180.786 L1921.87 180.786 L1921.87 216.805 L1917.61 216.805 L1917.61 180.786 Z" fill="#000000" fill-rule="nonzero" fill-opacity="1" /><path clip-path="url(#clip540)" d="M1952.96 202.777 L1952.96 204.86 L1933.38 204.86 Q1933.65 209.258 1936.02 211.573 Q1938.4 213.865 1942.64 213.865 Q1945.09 213.865 1947.38 213.263 Q1949.7 212.661 1951.96 211.457 L1951.96 215.485 Q1949.67 216.457 1947.27 216.967 Q1944.86 217.476 1942.38 217.476 Q1936.18 217.476 1932.54 213.865 Q1928.93 210.254 1928.93 204.096 Q1928.93 197.731 1932.36 194.004 Q1935.81 190.254 1941.64 190.254 Q1946.87 190.254 1949.9 193.633 Q1952.96 196.99 1952.96 202.777 M1948.7 201.527 Q1948.65 198.032 1946.73 195.948 Q1944.83 193.865 1941.69 193.865 Q1938.12 193.865 1935.97 195.879 Q1933.84 197.893 1933.52 201.55 L1948.7 201.527 Z" fill="#000000" fill-rule="nonzero" fill-opacity="1" /><path clip-path="url(#clip540)" d="M1957.47 190.879 L1961.73 190.879 L1967.06 211.11 L1972.36 190.879 L1977.38 190.879 L1982.7 211.11 L1988.01 190.879 L1992.27 190.879 L1985.48 216.805 L1980.46 216.805 L1974.88 195.555 L1969.28 216.805 L1964.26 216.805 L1957.47 190.879 Z" fill="#000000" fill-rule="nonzero" fill-opacity="1" /><path clip-path="url(#clip540)" d="M2020.9 202.777 L2020.9 204.86 L2001.32 204.86 Q2001.59 209.258 2003.95 211.573 Q2006.34 213.865 2010.58 213.865 Q2013.03 213.865 2015.32 213.263 Q2017.64 212.661 2019.9 211.457 L2019.9 215.485 Q2017.61 216.457 2015.2 216.967 Q2012.8 217.476 2010.32 217.476 Q2004.12 217.476 2000.48 213.865 Q1996.87 210.254 1996.87 204.096 Q1996.87 197.731 2000.3 194.004 Q2003.75 190.254 2009.58 190.254 Q2014.81 190.254 2017.84 193.633 Q2020.9 196.99 2020.9 202.777 M2016.64 201.527 Q2016.59 198.032 2014.67 195.948 Q2012.77 193.865 2009.63 193.865 Q2006.06 193.865 2003.91 195.879 Q2001.78 197.893 2001.45 201.55 L2016.64 201.527 Z" fill="#000000" fill-rule="nonzero" fill-opacity="1" /><path clip-path="url(#clip540)" d="M2027.89 180.786 L2032.15 180.786 L2032.15 216.805 L2027.89 216.805 L2027.89 180.786 Z" fill="#000000" fill-rule="nonzero" fill-opacity="1" /><path clip-path="url(#clip540)" d="M2041.06 180.786 L2045.32 180.786 L2045.32 216.805 L2041.06 216.805 L2041.06 180.786 Z" fill="#000000" fill-rule="nonzero" fill-opacity="1" /><path clip-path="url(#clip540)" d="M2055.32 210.925 L2060.2 210.925 L2060.2 214.906 L2056.41 222.314 L2053.42 222.314 L2055.32 214.906 L2055.32 210.925 Z" fill="#000000" fill-rule="nonzero" fill-opacity="1" /><path clip-path="url(#clip540)" d="M2103.14 186.782 Q2100.78 185.161 2095.25 185.161 Q2089.39 185.161 2089.39 187.87 Q2089.39 189.999 2095.51 191.11 Q2100.32 191.967 2103.03 194.559 Q2106.32 197.684 2106.32 204.096 Q2106.32 210.231 2103.14 213.842 Q2099.97 217.476 2094.42 217.476 Q2088.88 217.476 2085.69 213.842 Q2082.52 210.231 2082.52 203.865 Q2082.52 199.143 2085.69 195.323 Q2086.92 193.842 2088.65 193.008 Q2085.04 191.18 2085.04 187.916 Q2085.04 181.62 2095.25 181.62 Q2100.37 181.62 2103.14 183.24 L2103.14 186.782 M2091.85 194.166 Q2090.27 194.837 2089 196.527 Q2087.01 199.143 2087.01 203.865 Q2087.01 208.564 2088.98 211.203 Q2090.97 213.865 2094.42 213.865 Q2097.82 213.865 2099.81 211.18 Q2101.8 208.494 2101.8 204.096 Q2101.8 199.49 2099.69 197.268 Q2097.45 194.883 2094.53 194.629 Q2093.05 194.49 2091.85 194.166 Z" fill="#000000" fill-rule="nonzero" fill-opacity="1" /><path clip-path="url(#clip540)" d="M2129 195.277 L2158.68 195.277 L2158.68 199.166 L2129 199.166 L2129 195.277 M2129 204.721 L2158.68 204.721 L2158.68 208.657 L2129 208.657 L2129 204.721 Z" fill="#000000" fill-rule="nonzero" fill-opacity="1" /><path clip-path="url(#clip540)" d="M2166.01 201.92 L2178.49 201.92 L2178.49 205.717 L2166.01 205.717 L2166.01 201.92 Z" fill="#000000" fill-rule="nonzero" fill-opacity="1" /><path clip-path="url(#clip540)" d="M2195.88 185.323 Q2192.26 185.323 2190.44 188.888 Q2188.63 192.43 2188.63 199.559 Q2188.63 206.666 2190.44 210.231 Q2192.26 213.772 2195.88 213.772 Q2199.51 213.772 2201.31 210.231 Q2203.14 206.666 2203.14 199.559 Q2203.14 192.43 2201.31 188.888 Q2199.51 185.323 2195.88 185.323 M2195.88 181.62 Q2201.69 181.62 2204.74 186.226 Q2207.82 190.809 2207.82 199.559 Q2207.82 208.286 2204.74 212.893 Q2201.69 217.476 2195.88 217.476 Q2190.06 217.476 2186.99 212.893 Q2183.93 208.286 2183.93 199.559 Q2183.93 190.809 2186.99 186.226 Q2190.06 181.62 2195.88 181.62 Z" fill="#000000" fill-rule="nonzero" fill-opacity="1" /><path clip-path="url(#clip540)" d="M2216.04 210.925 L2220.92 210.925 L2220.92 216.805 L2216.04 216.805 L2216.04 210.925 Z" fill="#000000" fill-rule="nonzero" fill-opacity="1" /><path clip-path="url(#clip540)" d="M2231.15 182.245 L2249.51 182.245 L2249.51 186.18 L2235.44 186.18 L2235.44 194.652 Q2236.45 194.305 2237.47 194.143 Q2238.49 193.958 2239.51 193.958 Q2245.3 193.958 2248.68 197.129 Q2252.06 200.3 2252.06 205.717 Q2252.06 211.295 2248.58 214.397 Q2245.11 217.476 2238.79 217.476 Q2236.62 217.476 2234.35 217.106 Q2232.1 216.735 2229.69 215.994 L2229.69 211.295 Q2231.78 212.43 2234 212.985 Q2236.22 213.541 2238.7 213.541 Q2242.7 213.541 2245.04 211.434 Q2247.38 209.328 2247.38 205.717 Q2247.38 202.106 2245.04 199.999 Q2242.7 197.893 2238.7 197.893 Q2236.82 197.893 2234.95 198.309 Q2233.1 198.726 2231.15 199.606 L2231.15 182.245 Z" fill="#000000" fill-rule="nonzero" fill-opacity="1" /></svg>
